<svg width="122" height="44" viewBox="0 0 122 44" fill="none" xmlns="http://www.w3.org/2000/svg">
<rect width="40" height="40" transform="translate(0 2)" fill="#1890FF"/>
<path d="M24.5 10.5L13.0731 21.6785C13.033 21.7177 13.033 21.7823 13.0731 21.8215L24.5 33" stroke="white" stroke-width="4" stroke-linecap="round"/>
<path d="M66.646 5.786L65.404 7.262C64.768 6.71 64.186 6.326 63.658 6.11C63.142 5.894 62.578 5.786 61.966 5.786C60.718 5.786 59.722 6.23 58.978 7.118C58.234 7.994 57.862 9.152 57.862 10.592C57.862 12.044 58.228 13.214 58.96 14.102C59.704 14.99 60.682 15.434 61.894 15.434C62.59 15.434 63.196 15.302 63.712 15.038C64.252 14.762 64.876 14.312 65.584 13.688L66.862 15.128C66.034 15.896 65.242 16.448 64.486 16.784C63.73 17.12 62.878 17.288 61.93 17.288C60.034 17.288 58.516 16.664 57.376 15.416C56.248 14.168 55.684 12.56 55.684 10.592C55.684 8.636 56.248 7.04 57.376 5.804C58.516 4.556 60.052 3.932 61.984 3.932C62.884 3.932 63.694 4.076 64.414 4.364C65.134 4.652 65.878 5.126 66.646 5.786ZM78.9009 17H76.5069L73.3029 12.086H70.6389V17H68.5149V4.22H74.2569C75.4809 4.22 76.4829 4.586 77.2629 5.318C78.0429 6.038 78.4329 6.986 78.4329 8.162C78.4329 9.11 78.1689 9.92 77.6409 10.592C77.1249 11.264 76.4229 11.708 75.5349 11.924L78.9009 17ZM70.6389 5.984V10.322H73.8789C74.6469 10.322 75.2469 10.136 75.6789 9.764C76.1109 9.38 76.3269 8.846 76.3269 8.162C76.3269 7.478 76.1049 6.944 75.6609 6.56C75.2289 6.176 74.6349 5.984 73.8789 5.984H70.6389ZM89.4244 17L88.4164 14.12H82.7824L81.7924 17H79.6324L84.2404 4.22H87.0304L91.6384 17H89.4244ZM83.3944 12.356H87.8044L87.2644 10.79L86.8504 9.584C86.2504 7.892 85.8364 6.644 85.6084 5.84C85.3324 6.752 84.8224 8.27 84.0784 10.394L83.9344 10.808L83.3944 12.356ZM103.209 5.786L101.967 7.262C101.331 6.71 100.749 6.326 100.221 6.11C99.7045 5.894 99.1405 5.786 98.5285 5.786C97.2805 5.786 96.2845 6.23 95.5405 7.118C94.7965 7.994 94.4245 9.152 94.4245 10.592C94.4245 12.044 94.7905 13.214 95.5225 14.102C96.2665 14.99 97.2445 15.434 98.4565 15.434C99.1525 15.434 99.7585 15.302 100.275 15.038C100.815 14.762 101.439 14.312 102.146 13.688L103.425 15.128C102.597 15.896 101.805 16.448 101.049 16.784C100.293 17.12 99.4405 17.288 98.4925 17.288C96.5965 17.288 95.0785 16.664 93.9385 15.416C92.8105 14.168 92.2465 12.56 92.2465 10.592C92.2465 8.636 92.8105 7.04 93.9385 5.804C95.0785 4.556 96.6145 3.932 98.5465 3.932C99.4465 3.932 100.257 4.076 100.977 4.364C101.697 4.652 102.441 5.126 103.209 5.786ZM113.411 17L109.343 10.7L107.201 12.914V17H105.077V4.22H107.201V10.322L112.907 4.22H115.553L110.765 9.188L115.823 17H113.411ZM65.638 27.876L64.396 29.352C63.664 28.752 63.034 28.344 62.506 28.128C61.978 27.9 61.348 27.786 60.616 27.786C59.836 27.786 59.206 27.954 58.726 28.29C58.258 28.626 58.024 29.052 58.024 29.568C58.024 29.952 58.132 30.252 58.348 30.468C58.588 30.684 58.912 30.864 59.32 31.008C59.8 31.164 60.46 31.338 61.3 31.53C62.992 31.95 64.156 32.412 64.792 32.916C65.428 33.408 65.764 34.182 65.8 35.238C65.8 36.438 65.35 37.416 64.45 38.172C63.55 38.916 62.368 39.288 60.904 39.288C59.824 39.288 58.864 39.114 58.024 38.766C57.22 38.43 56.332 37.842 55.36 37.002L56.638 35.508C57.538 36.276 58.282 36.786 58.87 37.038C59.482 37.302 60.172 37.434 60.94 37.434C61.768 37.434 62.434 37.254 62.938 36.894C63.442 36.522 63.694 36.018 63.694 35.382C63.694 34.938 63.562 34.602 63.298 34.374C63.022 34.134 62.692 33.954 62.308 33.834C61.828 33.678 61.156 33.504 60.292 33.312C58.624 32.916 57.478 32.46 56.854 31.944C56.23 31.416 55.918 30.648 55.918 29.64C55.918 28.572 56.368 27.69 57.268 26.994C58.168 26.286 59.296 25.932 60.652 25.932C61.672 25.932 62.554 26.082 63.298 26.382C64.066 26.694 64.846 27.192 65.638 27.876ZM76.8855 26.22V28.038H72.9435V39H70.8015V28.038H66.8775V26.22H76.8855ZM85.8561 39L84.8481 36.12H79.2141L78.2241 39H76.0641L80.6721 26.22H83.4621L88.0701 39H85.8561ZM79.8261 34.356H84.2361L83.6961 32.79L83.2821 31.584C82.6821 29.892 82.2681 28.644 82.0401 27.84C81.7641 28.752 81.2541 30.27 80.5101 32.394L80.3661 32.808L79.8261 34.356ZM97.2761 26.22V28.038H93.3341V39H91.1921V28.038H87.2681V26.22H97.2761ZM109.053 26.22V34.788C109.053 36.276 108.627 37.398 107.775 38.154C106.923 38.91 105.687 39.288 104.067 39.288C102.447 39.288 101.211 38.91 100.359 38.154C99.5072 37.398 99.0812 36.276 99.0812 34.788V26.22H101.205V34.698C101.205 35.574 101.445 36.246 101.925 36.714C102.417 37.182 103.131 37.416 104.067 37.416C105.003 37.416 105.711 37.182 106.191 36.714C106.683 36.246 106.929 35.574 106.929 34.698V26.22H109.053ZM120.992 27.876L119.75 29.352C119.018 28.752 118.388 28.344 117.86 28.128C117.332 27.9 116.702 27.786 115.97 27.786C115.19 27.786 114.56 27.954 114.08 28.29C113.612 28.626 113.378 29.052 113.378 29.568C113.378 29.952 113.486 30.252 113.702 30.468C113.942 30.684 114.266 30.864 114.674 31.008C115.154 31.164 115.814 31.338 116.654 31.53C118.346 31.95 119.51 32.412 120.146 32.916C120.782 33.408 121.118 34.182 121.154 35.238C121.154 36.438 120.704 37.416 119.804 38.172C118.904 38.916 117.722 39.288 116.258 39.288C115.178 39.288 114.218 39.114 113.378 38.766C112.574 38.43 111.686 37.842 110.714 37.002L111.992 35.508C112.892 36.276 113.636 36.786 114.224 37.038C114.836 37.302 115.526 37.434 116.294 37.434C117.122 37.434 117.788 37.254 118.292 36.894C118.796 36.522 119.048 36.018 119.048 35.382C119.048 34.938 118.916 34.602 118.652 34.374C118.376 34.134 118.046 33.954 117.662 33.834C117.182 33.678 116.51 33.504 115.646 33.312C113.978 32.916 112.832 32.46 112.208 31.944C111.584 31.416 111.272 30.648 111.272 29.64C111.272 28.572 111.722 27.69 112.622 26.994C113.522 26.286 114.65 25.932 116.006 25.932C117.026 25.932 117.908 26.082 118.652 26.382C119.42 26.694 120.2 27.192 120.992 27.876Z" fill="white"/>
</svg>
